<?xml version="1.0" encoding="utf-8"?>
<!-- Generator: Adobe Adobe Illustrator 24.2.0, SVG Export Plug-In . SVG Version: 6.00 Build 0)  -->
<svg version="1.1" xmlns="http://www.w3.org/2000/svg" xmlns:xlink="http://www.w3.org/1999/xlink" x="0px" y="0px" width="1920px"
	 height="1080px" viewBox="0 0 1920 1080" style="enable-background:new 0 0 1920 1080;" xml:space="preserve">
<style type="text/css">
	.st0{fill:#FFFFFF;stroke:#000000;stroke-width:9;stroke-miterlimit:10;}
	.st1{fill:none;stroke:#000000;stroke-width:9;stroke-miterlimit:10;}
	.st2{fill:none;stroke:#000000;stroke-width:9;stroke-miterlimit:10;stroke-dasharray:0,0,0,0,0,0;}
	.st3{fill:none;stroke:#000000;stroke-width:9;stroke-linejoin:round;stroke-miterlimit:10;}
</style>
<g id="Road">
	<path class="st0" d="M54,891h171H54z"/>
	<path class="st0" d="M0,1049.43l1920-6.39L0,1049.43z"/>
	<path class="st0" d="M-0.48,725.23l1920-3.93L-0.48,725.23z"/>
	<path class="st0" d="M306,891h171H306z"/>
	<path class="st0" d="M576,891h171H576z"/>
	<path class="st0" d="M837,891h171H837z"/>
	<path class="st0" d="M1089,891h171H1089z"/>
	<path class="st0" d="M1341,891h171H1341z"/>
	<path class="st0" d="M1593,891h171H1593z"/>
	<path class="st0" d="M1845,891h75H1845z"/>
</g>
<g id="B1">
	<rect x="180" y="162" class="st1" width="234" height="558"/>
	<rect x="205.48" y="531" class="st2" width="45" height="45"/>
	<rect x="273.98" y="531" class="st2" width="45" height="45"/>
	<rect x="342.48" y="531" class="st2" width="45" height="45"/>
	<rect x="206" y="464" class="st2" width="45" height="45"/>
	<rect x="274.5" y="464" class="st2" width="45" height="45"/>
	<rect x="343" y="464" class="st2" width="45" height="45"/>
	<rect x="205.48" y="396" class="st2" width="45" height="45"/>
	<rect x="273.98" y="396" class="st2" width="45" height="45"/>
	<rect x="342.48" y="396" class="st2" width="45" height="45"/>
	<ellipse class="st2" cx="375.76" cy="117.17" rx="29" ry="11.5"/>
	<path class="st2" d="M351.08,161.38c0-5.71,0.68-37.39,0.68-37.39L351.4,162h48.8l0.19-36.76"/>
	<rect x="206" y="328" class="st2" width="45" height="45"/>
	<rect x="274.5" y="328" class="st2" width="45" height="45"/>
	<rect x="343" y="328" class="st2" width="45" height="45"/>
	<rect x="206" y="260" class="st2" width="45" height="45"/>
	<rect x="274.5" y="260" class="st2" width="45" height="45"/>
	<rect x="343" y="260" class="st2" width="45" height="45"/>
	<rect x="206" y="192" class="st2" width="45" height="45"/>
	<rect x="274.5" y="192" class="st2" width="45" height="45"/>
	<rect x="343" y="192" class="st2" width="45" height="45"/>
	<rect x="198.6" y="620.06" class="st2" width="52.4" height="23.26"/>
	<rect x="344.94" y="620.37" class="st2" width="52.4" height="23.26"/>
	<path class="st2" d="M199.72,717.43c-3.1-1.94-4.89-5.5-5.52-9.09c-0.63-3.6-0.25-7.29,0.14-10.92c0.26-2.49,0.56-5.07,1.85-7.21
		c1.57-2.6,4.42-4.2,7.35-4.95c4.68-1.2,9.91-0.41,13.83,2.43c3.92,2.83,5.85,7.72,5.85,12.55c0,6.8,5.61-11.21,9.55-15.83
		c2.41-2.83,4.58-6.26,8.3-6.37c4.47-0.13,6.28,3.08,9.42,6.27c0.87,0.89,0.63,2,1.22,3.1c0.73,1.36,0.94,2.93,1.15,4.46
		c0.63,4.7,1.27,9.45,0.77,14.17c-0.5,4.72-2.24,9.47-5.71,12.7"/>
	<path class="st2" d="M341.38,720.77c0.56-10.01,2.73-19.93,6.42-29.26c2.26-5.71,6.43-12.04,12.56-11.74
		c4.44,0.22,7.98,4.17,9.19,8.45c1.21,4.28,6,18.64,1.58,18.15c-4.27-0.47,2.94-12.01,6.8-13.89c4.61-2.25,10-4.15,14.75-2.22
		c4.56,1.85,7.13,6.7,8.57,11.4c1.11,3.62,1.78,7.46,1.11,11.19s-2.84,7.32-6.24,8.98"/>
	<rect x="273.27" y="610.27" class="st1" width="55" height="109.73"/>
</g>
<g id="B2">
	<polyline class="st1" points="414.7,516.92 789.72,517.88 789.19,725.23 	"/>
	<path class="st1" d="M433.25,686.56L433.25,686.56c0-9.94,8.06-18,18-18h181c9.94,0,18,8.06,18,18l0,0c0,9.94-8.06,18-18,18h-181
		C441.3,704.56,433.25,696.5,433.25,686.56z"/>
	<path class="st1" d="M433.25,625.63L433.25,625.63c0-9.94,8.06-18,18-18h181c9.94,0,18,8.06,18,18v0c0,9.94-8.06,18-18,18h-181
		C441.3,643.63,433.25,635.57,433.25,625.63z"/>
	<path class="st1" d="M435.25,564.7L435.25,564.7c0-9.94,8.06-18,18-18h181c9.94,0,18,8.06,18,18v0c0,9.94-8.06,18-18,18h-181
		C443.3,582.7,435.25,574.64,435.25,564.7z"/>
	<rect x="700.54" y="643.63" class="st1" width="41" height="79.94"/>
	<path class="st1" d="M673.04,583.54L673.04,583.54c0-20.34,16.49-36.83,36.83-36.83h22.33c20.34,0,36.83,16.49,36.83,36.83v0
		c0,20.34-16.49,36.83-36.83,36.83h-22.33C689.53,620.37,673.04,603.88,673.04,583.54z"/>
</g>
<g id="Tree2">
	<path class="st1" d="M826.18,590.18c0-29.13,55.75-99.75,55.75-99.75s49.75,70.62,49.75,99.75c0,29.13-23.62,52.75-52.75,52.75
		C849.8,642.93,826.18,619.31,826.18,590.18z"/>
	<line class="st1" x1="878.98" y1="575.26" x2="878.98" y2="644.5"/>
	<polyline class="st1" points="907.83,589.9 880.09,610.99 845.46,589.24 	"/>
	<path class="st1" d="M872.3,644.5c0.21,14.67,0.4,31.96-2.86,46.27c-2.61,11.45-7.43,22.39-14.11,32.04
		c-0.19,0.28-0.49,0.6-0.81,0.49s-0.03-0.76,0.17-0.48"/>
	<path class="st1" d="M886.76,643.19c1.58,12.81,0.53,56.98,4.58,64.92c2.73,5.34,11.97,12.78,16.49,16.72"/>
</g>
<g id="Tower">
	<ellipse class="st1" cx="1672.99" cy="265.1" rx="118" ry="63.38"/>
	<path class="st1" d="M1555.76,269c18.79,14.26,149.89,56.64,235.22-3.9"/>
	<path class="st1" d="M1562.76,243.64c9.71,7.37,45.68,21.45,89.95,24.98c41.39,3.3,90.04-2.63,131.27-31.88"/>
	<line class="st1" x1="1589.72" y1="256.48" x2="1584.34" y2="282.65"/>
	<line class="st1" x1="1621.72" y1="261.48" x2="1616.34" y2="287.65"/>
	<line class="st1" x1="1621.72" y1="261.48" x2="1616.34" y2="287.65"/>
	<path class="st1" d="M1650.64,269.43c0,1.86-4.35,26.76-4.35,26.76S1650.64,267.58,1650.64,269.43z"/>
	<line class="st1" x1="1677.65" y1="270.14" x2="1678.23" y2="297.46"/>
	<line class="st1" x1="1706.54" y1="267.76" x2="1710.8" y2="295.3"/>
	<line class="st1" x1="1732.69" y1="262.35" x2="1740.21" y2="290.23"/>
	<path class="st1" d="M1757.35,251.98l10.25,28L1757.35,251.98z"/>
	<path class="st3" d="M1636.59,205.5c32.02-5.32,41.49-65.44,41.49-65.44s6.79,57.55,32.72,65.07"/>
	<path class="st3" d="M1604.97,723.32c56.02-80.03,55.32-394.84,55.32-394.84h26.77c0,0-10.19,312.49,45.63,392.82"/>
	<path class="st1" d="M1645.59,580.55c0,0,23.85,15.6,49.12-0.12"/>
	<path class="st1" d="M1630.63,650.87c0,0,37.09,24.45,76.4-0.19"/>
</g>
<g id="Crane">
	<polygon class="st3" points="442.46,266.85 502.46,232 769.04,231.85 769.04,267.27 	"/>
	<polyline class="st3" points="503.09,235.13 503.18,267.27 549.39,231.85 549.26,266.85 590.36,231.85 590.65,266.85 
		624.93,231.85 624.53,266.85 660.77,234.03 661.12,266.85 697.79,231.85 698.06,266.85 730.3,231.85 730.68,266.85 764.46,231.85 	
		"/>
	<polyline class="st3" points="697.89,233.01 697.56,196.93 728.29,170.65 728.79,171.15 728.69,198.96 729.17,233.35 
		697.82,198.28 728.55,197.61 	"/>
	<path class="st3" d="M697.56,267.27v249.65V267.27z"/>
	<path class="st3" d="M729.17,516.92V269.09V516.92z"/>
	<polyline class="st3" points="698.32,267.82 728.15,298.54 698.32,298.27 727.8,327.23 698.56,327.4 729.17,354.87 699,354.63 
		729.17,381.69 697.56,381.37 729.17,409.65 699.65,409.53 729.17,438.21 698.77,438.1 729.17,466.48 699.06,466.42 729.17,492.07 
		697.56,492.5 728,516.92 	"/>
	<rect x="452.78" y="376.32" class="st3" width="50.31" height="50.31"/>
	<polyline class="st3" points="452.78,426.63 503.09,376.32 454.77,377.64 501.22,425.75 	"/>
	<line class="st3" x1="476.67" y1="376.65" x2="477.94" y2="267.27"/>
</g>
<g id="B3">
	<polyline class="st3" points="960.5,723.91 960,301.86 1158.33,139.06 1161.91,723.26 	"/>
	<polyline class="st3" points="1028.69,722.92 1029.13,637.4 1084.08,638.29 1083.64,723.32 	"/>
	<circle class="st3" cx="1011.68" cy="575.26" r="25.5"/>
	<circle class="st3" cx="1105.68" cy="575.26" r="25.5"/>
	<circle class="st3" cx="1011.68" cy="490.43" r="25.5"/>
	<circle class="st3" cx="1105.68" cy="490.43" r="25.5"/>
	<circle class="st3" cx="1009.39" cy="409.26" r="25.5"/>
	<circle class="st3" cx="1103.39" cy="409.26" r="25.5"/>
	<circle class="st3" cx="1009.39" cy="324.43" r="25.5"/>
	<circle class="st3" cx="1103.39" cy="324.43" r="25.5"/>
	<circle class="st3" cx="1103.39" cy="239.6" r="25.5"/>
</g>
<g id="Layer_8">
	<polyline class="st3" points="1159.55,723.91 1159.05,301.86 1357.37,139.06 1360.95,723.26 	"/>
	<polyline class="st3" points="1227.74,722.92 1228.18,637.4 1283.12,638.29 1282.69,723.32 	"/>
	<circle class="st3" cx="1210.73" cy="575.26" r="25.5"/>
	<circle class="st3" cx="1304.73" cy="575.26" r="25.5"/>
	<circle class="st3" cx="1210.73" cy="490.43" r="25.5"/>
	<circle class="st3" cx="1304.73" cy="490.43" r="25.5"/>
	<circle class="st3" cx="1208.43" cy="409.26" r="25.5"/>
	<circle class="st3" cx="1302.43" cy="409.26" r="25.5"/>
	<circle class="st3" cx="1208.43" cy="324.43" r="25.5"/>
	<circle class="st3" cx="1302.43" cy="324.43" r="25.5"/>
	<circle class="st3" cx="1302.43" cy="239.6" r="25.5"/>
</g>
<g id="Tree3">
	<path class="st1" d="M1373.75,583.3c0-29.13,55.75-99.75,55.75-99.75s49.75,70.62,49.75,99.75c0,29.13-23.62,52.75-52.75,52.75
		S1373.75,612.43,1373.75,583.3z"/>
	<line class="st1" x1="1426.54" y1="568.38" x2="1426.54" y2="637.62"/>
	<polyline class="st1" points="1455.39,583.03 1427.65,604.11 1393.03,582.36 	"/>
	<path class="st1" d="M1419.87,637.62c0.21,14.67,0.4,31.96-2.86,46.27c-2.61,11.45-7.43,22.39-14.11,32.04
		c-0.19,0.28-0.49,0.6-0.81,0.49c-0.32-0.1-0.03-0.76,0.17-0.48"/>
	<path class="st1" d="M1434.32,636.31c1.58,12.81,0.53,56.98,4.58,64.92c2.73,5.34,11.97,12.78,16.48,16.72"/>
</g>
<g id="Tree5">
	<path class="st1" d="M1506.03,586.66c0-29.13,55.75-99.75,55.75-99.75s49.75,70.62,49.75,99.75c0,29.13-23.62,52.75-52.75,52.75
		C1529.64,639.41,1506.03,615.79,1506.03,586.66z"/>
	<line class="st1" x1="1558.82" y1="571.74" x2="1558.82" y2="640.98"/>
	<polyline class="st1" points="1587.67,586.38 1559.93,607.47 1525.31,585.72 	"/>
	<path class="st1" d="M1552.15,640.98c0.21,14.67,0.4,31.96-2.86,46.27c-2.61,11.45-7.43,22.39-14.11,32.04
		c-0.19,0.28-0.49,0.6-0.81,0.49s-0.03-0.76,0.17-0.48"/>
	<path class="st1" d="M1566.6,639.67c1.58,12.81,0.53,56.98,4.58,64.92c2.73,5.34,11.97,12.78,16.49,16.72"/>
</g>
<g id="Tree4">
	<path class="st1" d="M1806.24,585.55c0-29.13,55.75-99.75,55.75-99.75s49.75,70.62,49.75,99.75c0,29.13-23.62,52.75-52.75,52.75
		C1829.85,638.3,1806.24,614.68,1806.24,585.55z"/>
	<line class="st1" x1="1859.03" y1="570.63" x2="1859.03" y2="639.87"/>
	<polyline class="st1" points="1887.88,585.27 1860.14,606.36 1825.52,584.61 	"/>
	<path class="st1" d="M1852.36,639.87c0.21,14.67,0.4,31.96-2.86,46.27c-2.61,11.45-7.43,22.39-14.11,32.04
		c-0.19,0.28-0.49,0.6-0.81,0.49s-0.03-0.76,0.17-0.48"/>
	<path class="st1" d="M1866.81,638.56c1.58,12.81,0.53,56.98,4.58,64.92c2.73,5.34,11.97,12.78,16.49,16.72"/>
	<circle class="st1" cx="1802.42" cy="701.2" r="20.1"/>
	<path class="st1" d="M1794.79,684.11c-2.21-4.17-4.42-8.33-6.63-12.5c-0.97-1.82-1.95-3.16-3.35-4.67
		c-1.44-1.55-4.27-3.68-6.18-4.6c-7.5-3.59-15.53-3.32-23.2-0.12s-13.87,9.77-16.61,17.62c-4.86,13.94,1.32,29.53,10.46,41.13"/>
</g>
<g id="Tree">
	<path class="st1" d="M34,590.57c0-29.13,55.75-99.75,55.75-99.75s49.75,70.62,49.75,99.75c0,29.13-23.62,52.75-52.75,52.75
		S34,619.7,34,590.57z"/>
	<line class="st1" x1="86.79" y1="575.65" x2="86.79" y2="644.89"/>
	<polyline class="st1" points="115.64,590.3 87.9,611.38 53.28,589.63 	"/>
	<path class="st1" d="M80.12,644.89c0.21,14.67,0.4,31.96-2.86,46.27c-2.61,11.45-7.43,22.39-14.11,32.04
		c-0.19,0.28-0.49,0.6-0.81,0.49c-0.32-0.1-0.03-0.76,0.17-0.48"/>
	<path class="st1" d="M94.57,643.58c1.58,12.81,0.53,56.98,4.58,64.92c2.73,5.34,11.97,12.78,16.49,16.72"/>
</g>
</svg>
